<?xml version="1.0" encoding="UTF-8" standalone="no"?>
<svg
   version="1.0"
   width="1280.000000pt"
   height="1280.000000pt"
   viewBox="0 0 1280.000000 1280.000000"
   preserveAspectRatio="xMidYMid meet"
   id="svg18"
   sodipodi:docname="logo11.svg"
   inkscape:version="1.4 (86a8ad7, 2024-10-11)"
   xmlns:inkscape="http://www.inkscape.org/namespaces/inkscape"
   xmlns:sodipodi="http://sodipodi.sourceforge.net/DTD/sodipodi-0.dtd"
   xmlns="http://www.w3.org/2000/svg"
   xmlns:svg="http://www.w3.org/2000/svg">
  <defs
     id="defs18">
    <rect
       x="975.4749"
       y="1228.6183"
       width="283.69516"
       height="87.290816"
       id="rect22" />
  </defs>
  <sodipodi:namedview
     id="namedview18"
     pagecolor="#ffffff"
     bordercolor="#000000"
     borderopacity="0.25"
     inkscape:showpageshadow="2"
     inkscape:pageopacity="0.0"
     inkscape:pagecheckerboard="0"
     inkscape:deskcolor="#d1d1d1"
     inkscape:document-units="pt"
     inkscape:zoom="0.22911917"
     inkscape:cx="958.01673"
     inkscape:cy="700.50882"
     inkscape:window-width="1366"
     inkscape:window-height="705"
     inkscape:window-x="-8"
     inkscape:window-y="-8"
     inkscape:window-maximized="1"
     inkscape:current-layer="svg18" />
  <metadata
     id="metadata1">
Created by potrace 1.16, written by Peter Selinger 2001-2019
</metadata>
  <rect
     style="fill:#ffffff;stroke-width:2.33822"
     id="rect1"
     width="1260"
     height="1260"
     x="12.517149"
     y="12.03855"
     ry="254.55847" />
  <g
     id="g22"
     transform="matrix(2.793475,0,0,2.793475,-1943.7547,-1803.6947)"
     inkscape:label="group"
     style="fill:#000000">
    <path
       id="rect1-7"
       style="fill:#000000;fill-opacity:1;stroke-width:0.971756"
       inkscape:label="textTitu"
       d="m 705.99739,838.18873 v 17.364 h 43.31653 v 85.27653 h 29.47503 v -85.27653 h 43.2165 v -17.364 z m 131.14453,0 v 18.20346 h 27.98155 v -18.20346 z m 86.03521,2.03055 -28.0808,11.48239 v 14.77253 h -12.84585 v 15.68354 h 12.84585 v 32.41584 c 0,6.9547 0.29893,11.57593 0.8964,13.86304 0.73024,3.22063 2.02458,5.78765 3.88337,7.70135 1.92518,1.86704 4.91218,3.4077 8.9617,4.62127 4.04951,1.1669 8.59691,1.75049 13.64221,1.75049 8.2318,0 15.60107,-0.98043 22.10685,-2.94081 l -2.38989,-15.26343 c -4.91252,1.26024 -8.66329,1.89052 -11.25232,1.89052 -1.8588,0 -3.45207,-0.32681 -4.77978,-0.98027 -1.26132,-0.65346 -2.0916,-1.46971 -2.48991,-2.44991 -0.33193,-1.02686 -0.49783,-4.5743 -0.49783,-10.64215 v -29.96594 h 19.1191 V 866.4742 h -19.1191 z m -86.03521,26.25492 v 74.35506 h 27.98155 V 866.4742 Z m 123.97487,0 v 47.04986 c 0,7.00137 1.26147,12.48555 3.78412,16.45299 2.52265,3.96744 6.60522,7.04801 12.24798,9.24177 5.64277,2.19376 12.01586,3.29091 19.11911,3.29091 6.9705,0 13.576,-1.14383 19.8162,-3.43095 6.3066,-2.28711 11.3846,-5.41437 15.235,-9.38181 v 11.13229 h 25.9902 v -36.29075 h -14.367 l -13.6145,-14.84408 v 8.14609 c 0,10.64208 -0.6973,17.34011 -2.0914,20.09399 -1.3941,2.70719 -3.9828,4.99408 -7.7667,6.86111 -3.784,1.82036 -8.0661,2.73075 -12.8459,2.73075 -4.1823,0 -7.63409,-0.67696 -10.3559,-2.03055 -2.72181,-1.40028 -4.61401,-3.26699 -5.67618,-5.60078 -0.99578,-2.38046 -1.49349,-8.79837 -1.49349,-19.25375 V 866.4742 Z"
       transform="translate(8.9494266e-6)" />
    <path
       id="rect4"
       style="fill:#ff6b00;fill-opacity:1;stroke-width:0.971756"
       d="m 923.17713,840.21928 -28.0808,11.48239 v 14.77253 h -12.84585 v 15.68354 h 12.84585 v 32.41584 c 0,6.9547 0.29893,11.57593 0.8964,13.86304 0.73024,3.22063 2.02458,5.78765 3.88337,7.70135 1.92518,1.86704 4.91218,3.4077 8.9617,4.62127 4.04951,1.1669 8.59691,1.75049 13.64221,1.75049 8.2318,0 15.60107,-0.98043 22.10685,-2.94081 l -2.38989,-15.26343 c -4.91252,1.26024 -8.66329,1.89052 -11.25232,1.89052 -1.8588,0 -3.45207,-0.32681 -4.77978,-0.98027 -1.26132,-0.65346 -2.0916,-1.46971 -2.48991,-2.44991 -0.33193,-1.02686 -0.49783,-4.5743 -0.49783,-10.64215 v -29.96594 h 19.1191 V 866.4742 h -19.1191 z"
       inkscape:label="lettert" />
    <path
       id="rect3"
       style="fill:#ff6b00;fill-opacity:1;stroke-width:2.26809"
       d="m 705.99739,838.18873 v 17.364 h 43.31653 v 85.27653 h 29.47503 v -85.27653 h 43.2165 v -17.364 z"
       inkscape:label="letterT" />
    <circle
       style="fill:#000000;stroke-width:1.40689;stroke-dasharray:none"
       id="path22-1"
       cx="851.24139"
       cy="835.17603"
       r="24.893711"
       inkscape:label="path7" />
    <g
       id="g4"
       transform="matrix(0.28246885,0,0,0.28246885,807.05886,674.83871)"
       style="fill:#000000">
      <path
         id="path1"
         style="fill:#000000;stroke-width:0.75"
         inkscape:label="path1"
         d="m 949.99951,300 v 40.00049 c 100.88079,-2.04388 194.64029,78.64204 207.65479,178.70068 8.37,44.32879 -0.456,88.17351 -20.7612,126.15967 h 43.5996 c 36.2185,-93.56124 19.6824,-208.86403 -59.855,-277.57031 C 1074.9455,324.32937 1012.7173,299.78968 949.99951,300 Z M 700.00049,550.00049 c -3.29422,79.7435 37.70755,150.85052 98.12988,196.87207 l -14.54004,-69.6958 C 755.65318,640.43101 738.96077,595.16669 738.58594,550.00049 Z" />
      <path
         d="m 704.91386,504.50996 c -6.4,2.5 -9.1,10.8 -5.6,16.8 3.2,5.4 3.8,5.6 32.9,6.1 26.3,0.5 27.1,0.6 30.3,2.8 6.7,4.8 7.7,8.7 23.7,97.2 5.6,30.8 23.6,125 26.1,136.4 3.8,17.6 14.1,29.3 28.6,32.5 7.1,1.6 287.80004,1.5 291.20004,-0.1 3.3,-1.5 6.6,-6.7 6.6,-10.4 0,-3.9 -3.4,-9.2 -6.8,-10.5 -1.8,-0.7 -47.3,-1.1 -143.20004,-1.2 -128.7,-0.2 -140.8,-0.3 -143.5,-1.9 -3.9,-2.1 -7.1,-5.6 -8.4,-9.1 -1.4,-3.7 -7.3,-33.2 -11.6,-58.1 -4,-22.7 -6.4,-36 -13.5,-72.6 -2.7,-14 -7.2,-38.1 -10,-53.5 -8.6,-47.7 -9.7,-51.4 -16.7,-61 -4.2,-5.7 -13,-11.5 -20,-13.1 -6.8,-1.6 -56.3,-1.9 -60.1,-0.3 z"
         id="path3-9"
         sodipodi:nodetypes="ccccccccscccccccccc"
         style="fill:#000000;stroke-width:0.1"
         inkscape:label="path2" />
      <path
         id="path5-8"
         style="fill:#000000;stroke-width:0.1"
         d="m 1009.4194,548.12695 c -56.89992,0 -124.59987,0.1003 -150.39987,0.3003 l -44.94873,0.19336 4.28906,23.00683 h 38.96045 c 22.3,0.1 59.49961,0.30059 82.59961,0.60059 23.1,0.3 42.30059,0.4999 42.60059,0.3999 0.3,0 -0.10049,4.19922 -1.00049,9.19922 l -1.69922,9.30029 -22.40039,0.0996 c -12.4,0.1 -24.1998,0.20029 -26.2998,0.30029 l -3.79981,0.0996 0.29883,8.2002 0.30029,8.2998 24,0.50098 c 27.7,0.6 25.4002,-0.6 23.2002,12 l -1.29932,7.5 -21.90088,0.49951 -22.00049,0.49951 v 7.70069 c 0.1,4.3 0.40127,7.99941 0.80127,8.39941 0.3,0.3 9.6001,0.90117 20.6001,1.20117 19.8,0.5 20.09961,0.49864 19.59961,2.59864 -0.3,1.2 -0.9,5.9 -1.5,10.5 -0.5,4.7 -1.50059,8.80068 -2.10059,9.20068 -0.7,0.4 -8.49902,0.39961 -17.49902,0.0996 l -16.30078,-0.49951 -0.89941,2.39941 c -0.5,1.3 -0.6003,5.30039 -0.3003,8.90039 l 0.59912,6.49951 16.30078,0.3003 c 8.9,0.1 16.19971,0.60048 16.19971,1.00048 0,1.3 -3.0001,19.59942 -4.1001,24.89942 l -0.99902,5.20019 h -57.60059 c -29.28764,0 -53.02953,0.34767 -57.01025,0.79395 l 4.22315,22.65381 c 4.6148,0.36477 51.29731,0.54815 109.08691,0.45263 123.09998,-0.4 114.30068,0.19971 126.20068,-7.80029 7.9,-5.3 9.2991,-8.5 18.5991,-45 9.2,-36.2 13.5998,-52.99951 18.7998,-72.49951 11.6,-43.3 12.1,-46.9002 7.5,-54.7002 -3.3,-5.7 -8.4989,-10.3 -13.3989,-12 -3,-1 -25.7013,-1.30078 -107.3013,-1.30078 z m -10.59958,24.50098 h 53.29978 53.2998 l 1.5,2.39941 c 1.5,2.2 1.2013,3.90049 -5.1987,28.00049 l -6.7002,25.59961 h -22.8003 -22.8999 l 0.7002,-3.7998 c 0.3,-2 1.499,-7.29971 2.499,-11.69971 1,-4.4 1.8999,-8.9001 1.8999,-10.1001 0,-3.6 -3.199,-5.60019 -8.499,-5.20019 -6.5,0.4 -7.8998,2.49931 -11.2998,17.79931 l -2.9004,12.50098 -20.6001,0.30029 c -16.19993,0.2 -20.69969,-4.9e-4 -20.69969,-1.00049 0,-2.4 3.99922,-29.2996 6.19922,-42.0996 z m 90.90088,73.19971 c 0.4,-0.1 0.4992,1.3 0.1992,3 -0.4,1.8 -1.6004,7.0997 -2.9004,11.6997 l -2.1987,8.40088 -22.7007,0.0996 c -19.6,0.1 -22.7007,-0.10039 -22.7007,-1.40039 0.1,-0.8 1.1013,-5.79951 2.3013,-10.99951 l 2.1987,-9.50098 22.5,-0.49951 c 12.4,-0.3 22.9013,-0.6998 23.3013,-0.7998 z m -64.5,0.0996 c 1.9,-0.1 2.1992,0.2 1.6992,1.5 -0.3,0.9 -1.5001,6.00019 -2.6001,11.20019 -1.1,5.2 -2.4992,9.79971 -3.1992,10.19971 -1.4,0.9 -24.00078,1.00068 -31.30078,0.20068 l -5.09912,-0.60058 0.79981,-5.2002 c 0.5,-2.8 1.09892,-7.69883 1.39892,-10.79883 l 0.60059,-5.80078 17.69968,-0.19922 c 9.7,-0.2 18.801,-0.40097 20.001,-0.50097 z m -25.30078,40.70068 c 14.99998,0 17.50048,0.2 17.50048,1.5 0,2.7 -6.2008,26.89971 -7.3008,28.19971 -0.7,1 -5.2999,1.29931 -16.89987,1.29931 -14.7,0 -15.89991,-0.0988 -15.39991,-1.79882 0.3,-0.9 1.20059,-7.3002 2.10059,-14.2002 0.9,-6.9 1.79951,-13.10029 1.99951,-13.80029 0.3,-0.9 4.8,-1.19971 18,-1.19971 z m 34.80028,0 h 22.4004 22.3989 l -0.6987,3.7002 c -2.7,15 -6.0007,22.9 -10.7007,25.5 -3.2,1.79999 -39.7002,2.49873 -39.7002,0.69873 0,-0.7 1.4007,-7.69913 3.2007,-15.59913 z"
         inkscape:label="path3" />
      <path
         id="rect21"
         style="fill:#000000;stroke-width:1.75405;stroke-dasharray:none"
         d="m 833.521,628.62158 3.03954,16.3667 h 69.12452 v -16.36669 z"
         inkscape:label="path4" />
      <path
         id="rect21-5"
         style="fill:#000000;stroke-width:1.75405;stroke-dasharray:none"
         d="m 842.25,669.75001 3.0396,16.3667 h 69.1245 v -16.36669 z"
         inkscape:label="path5" />
    </g>
  </g>
</svg>
